PathFileType	4	(X/Y/Z)	C:/Users/beibeiliu/ov580/test_trc/capture2\sequence.22_training_dense_right.trc
DataRate	CameraRate	NumFrames	NumMarkers	Units	OrigDataRate	OrigDataStartFrame	OrigNumFrames
120	120	14	19	mm	120	96	380
Frame#	Time	ThumbCMC			ThumbMCP			ThumbIP			ThumbTip			IndexMCP			IndexPIP			IndexTip			MiddleMCP			MiddlePIP			MiddleTip			RingMCP			RingPIP			RingTip			PinkyMCP			PinkyPIP			PinkyTip			BackHand1			BackHand2			BackHand3	
		X0	Y0	Z0	X1	Y1	Z1	X2	Y2	Z2	X3	Y3	Z3	X4	Y4	Z4	X5	Y5	Z5	X6	Y6	Z6	X7	Y7	Z7	X8	Y8	Z8	X9	Y9	Z9	X10	Y10	Z10	X11	Y11	Z11	X12	Y12	Z12	X13	Y13	Z13	X14	Y14	Z14	X15	Y15	Z15	X16	Y16	Z16	X17	Y17	Z17	X18	Y18	Z18	
95	0.791667	104.062	82.8196	45.3145	83.4739	73.8526	26.3682	75.9372	61.2816	-2.21747	76.3506	48.4155	-17.6731	104.712	47.6068	-15.2896	83.334	27.5285	-1.75484	89.7803	44.3146	25.3695	118.15	27.6195	-6.33413	91.1912	17.5822	11.9886	102.04	41.1687	38.446	124.543	16.72	0.84776	102.478	10.1099	21.3084	110.072	35.2083	43.4052	151.485	9.23381	4.90687	134.788	-14.1673	-3.43591	108.163	-22.3148	-0.00702272	160.242	53.4303	27.2966	162.868	64.4697	55.3784	141.842	79.3869	32.3888	
96	0.8	115.527	90.0375	41.5805	94.3862	79.9339	24.2568	80.5958	72.5802	3.73447	72.985	57.6132	-14.7398	99.9395	49.4493	-14.6899	74.3005	39.9158	-1.52158	89.3775	50.9837	28.316	102.163	28.7336	-5.08334	82.4215	25.4241	18.9996	97.8119	49.2557	39.8554	113.077	13.9611	6.67793	90.6304	20.0123	30.4963	106.915	45.3062	43.364	135.006	-1.08173	10.9861	105.582	-9.39448	4.91693	80.3174	-8.33819	16.8123	157.842	43.6212	26.6925	165.43	56.9777	50.3718	149.61	76.6613	31.4391	
97	0.808333	125.217	93.2374	39.9626	103.343	88.4285	25.0674	84.6115	85.6362	3.99396	74.5766	67.3956	-11.7324	99.667	51.2283	-12.523	73.276	49.9277	2.75681	90.2063	62.2332	28.7336	95.6128	34.7091	-3.73601	75.8692	39.7151	19.0319	101.44	57.6507	40.67	99.1164	18.7194	9.54376	83.9294	26.3632	33.0209	107.745	46.4337	47.8885	117.72	3.26074	12.8703	86.6351	-2.5347	16.0633	64.4936	12.0065	31.1241	154.065	33.4713	24.9143	168.038	47.881	47.9516	153.671	71.0302	26.6905	
98	0.816667	135.688	95.6031	42.4268	110.821	97.6332	27.3299	93.7177	90.7675	6.43235	77.3017	79.4057	-12.1554	99.4916	56.8803	-10.8142	73.7108	58.9086	5.21065	93.2634	74.2707	29.9405	93.7464	39.5065	-1.43854	74.8461	50.2454	23.9175	100.367	64.2139	41.029	97.0227	25.1208	11.4877	80.4437	37.3668	33.7752	106.276	52.386	48.0265	109.79	3.66162	17.6364	78.1049	10.75	14.9885	60.0292	26.0749	30.8436	151.365	33.9142	26.1844	168.672	42.2306	51.2295	155.79	68.0376	24.3496	
99	0.825	143.956	95.3292	40.9286	119.483	99.8052	27.4587	100.17	97.3835	4.36027	83.3179	90.5292	-12.4836	100.94	67.8678	-9.92122	75.9287	73.1156	4.6989	99.6575	79.1165	31.2683	93.3168	50.6949	-1.70157	76.1053	59.4278	22.4519	105.279	70.4264	41.6429	92.437	34.2338	12.2801	80.9725	47.0294	37.8116	110.123	55.5404	49.8496	102.203	8.54039	15.8427	73.6897	12.8611	16.9104	51.8026	31.1852	23.8881	147.111	30.5697	25.0894	168.02	36.1142	50.3886	159.075	65.3497	26.8055	
100	0.833333	150.796	92.6898	42.9585	128.546	105.306	26.6687	109.531	106.071	7.50761	92.6648	95.414	-9.97771	103.401	71.4474	-8.31785	80.4454	83.2182	9.77472	102.667	82.9274	32.9471	95.6165	55.8564	0.892114	79.7123	68.0197	25.8544	109.523	73.342	42.9851	93.1331	39.8934	11.2663	81.4472	57.4857	35.6686	115.136	61.0815	47.8437	101.101	16.0657	15.9103	75.7392	20.0232	10.649	47.7422	30.4478	15.6131	147.052	33.0644	25.2911	165.581	32.426	49.5998	163.28	61.3752	26.1724	
101	0.841667	156.393	92.6384	40.1878	135.505	102.64	26.0309	117.726	109.092	3.01457	102.9	107.504	-9.73227	107.046	81.7307	-9.67339	86.874	92.4709	8.91782	112.279	87.1706	33.6404	96.2011	63.3088	0.512792	84.1306	77.7598	23.3694	118.025	77.3656	42.744	93.5406	50.2943	9.23175	84.5626	65.0753	34.6552	116.154	65.9599	47.2927	99.1175	23.5645	15.0707	72.5888	27.6656	9.31341	47.0669	32.7685	5.0854	146.487	30.6958	27.7436	164.602	32.9868	50.7399	164.285	57.2604	27.0427	
102	0.85	161.391	86.3042	43.4265	145.167	104.458	27.1904	127.371	111.499	3.43899	111.999	109.104	-7.8714	114.193	81.5284	-8.86584	92.5571	95.1177	8.50662	116.524	89.1362	33.4559	101.462	66.1119	-0.279532	88.7577	82.4875	25.9442	123.009	75.0419	43.4406	95.5456	51.6082	10.1551	87.0626	70.5957	33.1536	117.982	68.0389	47.9538	93.7603	27.3185	12.4219	72.5498	32.3381	8.92809	49.0739	35.2881	2.54746	143.447	29.8183	22.3971	163.745	26.5112	51.3889	166.038	52.8534	28.5077	
103	0.858333	168.3	83.9938	45.2504	152.177	100.332	28.2841	136.802	107.466	6.34056	119.123	108.87	-13.5065	116.059	81.206	-9.29614	100.853	99.6794	9.50779	124.437	91.9757	32.0429	104.125	66.1486	-0.247311	94.9073	87.0236	22.7354	124.094	79.8794	41.1992	96.1176	57.0608	8.27073	89.9375	72.4923	32.1754	119.638	66.4408	47.8293	91.0413	28.5436	11.4716	74.5985	36.2721	5.96385	52.0203	39.705	-3.09492	141.845	24.9044	23.7687	161.753	22.8767	50.2221	169.917	51.335	28.4762	
104	0.866667	168.381	74.397	47.9413	159.182	97.8841	26.6397	143.586	103.613	5.33708	128.241	106.021	-10.3796	126.205	81.9102	-11.4196	107.042	101.165	7.07558	125.771	87.28	31.3254	108.891	70.8802	-4.74392	96.9122	86.0354	20.3645	124.635	75.6126	42.0742	97.5611	56.111	7.1612	95.4446	76.4484	31.0441	122.122	62.2154	47.5249	93.3032	29.0514	10.2216	73.5937	38.9161	4.43341	51.3856	47.6456	-8.87102	143.056	21.1119	25.832	157.696	16.7876	52.9902	166.914	42.3675	32.253	
105	0.875	171.219	67.7835	47.3072	163.164	91.0594	28.3293	150.392	101.062	3.77366	133.761	101.454	-13.4511	128.801	78.5526	-11.6813	112.699	97.3382	4.53336	127.813	86.3197	31.2039	112.173	66.349	-4.51347	100.235	84.2181	16.3252	127.126	73.3236	41.5115	100.577	57.8489	5.21908	99.4885	75.2893	29.4436	123.096	63.7074	46.6081	92.8135	28.8635	8.01893	73.6047	42.9765	-0.237067	54.5184	50.727	-8.90938	139.663	17.571	23.925	156.098	12.1646	51.6115	167.703	38.5616	30.54	
106	0.883333	175.377	62.0851	49.7721	168.354	83.2065	30.4124	156.233	92.446	4.65269	141.98	95.3884	-10.3845	131.709	70.7975	-10.2914	115.786	89.9393	2.9042	130.978	78.5471	33.0371	113.61	61.102	-4.19041	104.319	81.1627	18.4316	131.043	66.6844	43.3851	103.716	53.3438	3.59622	100.186	70.8689	26.7648	124.227	60.2389	45.6749	92.986	25.0976	8.57225	72.6093	41.2785	-0.21102	55.6783	50.3908	-8.43032	136.299	7.74796	24.5238	149.873	1.85864	54.6505	167.029	28.6568	31.4544	
107	0.891667	174.333	52.6477	52.6437	166.467	71.299	31.5937	159.627	82.5392	5.28313	147.983	88.3259	-13.5324	138.371	64.2956	-11.4291	123.191	88.2739	4.14495	135.951	72.0105	33.528	118.017	57.449	-6.5928	109.65	77.069	15.5501	126.301	61.8407	43.629	106.699	47.2314	3.05804	101.006	64.9113	29.853	124.83	52.8787	45.9818	91.5147	22.7981	4.50216	78.422	35.6728	-2.70911	61.3473	51.8229	-15.5103	134.141	1.99653	26.0044	147.725	-3.10187	52.2561	166.676	19.4968	35.6152	
108	0.9	170.959	40.9406	54.5463	169.92	63.0417	30.2739	166.184	75.894	6.39139	151.886	77.8071	-13.6626	141.153	53.8967	-10.7643	125.027	79.2927	4.65077	137.034	65.9337	33.5922	124.264	45.7714	-6.25543	108.601	68.5863	14.1463	129.496	56.6611	42.5656	106.159	42.5436	2.3848	101.798	59.0581	28.0002	124.766	42.0058	48.6427	91.3771	18.7532	1.07104	80.9235	31.6817	-5.68329	61.8509	46.6694	-18.7146	131.34	-5.48975	28.2496	145.574	-10.5167	53.9224	165.551	8.58536	36.6549	
